# xmcd
#
# Track frame offsets:
#  150
#  15587
#  33965
#  45495
#  63950
#  82870
#  99625
#  116095
#
# Disc length: 1724 seconds
#
# Revision: 0
# Processed by: cddbd v1.5.1PL2 Copyright (c) Steve Scherf et al.
# Submitted via: Collectorz.com_Music_Collector 6.9
#
DISCID=5606ba08
DTITLE=James Anthony - Nite School
DYEAR=1900
DGENRE=Blues
TTITLE0=You Don't Talk To Me
TTITLE1=Enough Is Enough
TTITLE2=You Don't Love Me
TTITLE3=It Ain't True
TTITLE4=I'm Still In Love With You (So Bad It Hurts)
TTITLE5=I Need You
TTITLE6=Fine Line
TTITLE7=Too Much Daytime T.V.
EXTD=
EXTT0=
EXTT1=
EXTT2=
EXTT3=
EXTT4=
EXTT5=
EXTT6=
EXTT7=
PLAYORDER=
